HIERARCHY
ROOT root
{
	OFFSET	0	13.1	24.9
	CHANNELS 6  Xposition Yposition Zposition Xrotation Yrotation Zrotation
	JOINT spine_1
	{
		OFFSET	0	9.99999	0
		CHANNELS 3  Xrotation Yrotation Zrotation
		JOINT spine_2
		{
			OFFSET	0	112	-10
			CHANNELS 3  Xrotation Yrotation Zrotation
			JOINT spine_3
			{
				OFFSET	0	206.5	19.3
				CHANNELS 3  Xrotation Yrotation Zrotation
				JOINT spine_4
				{
					OFFSET	0	110.4	14.6
					CHANNELS 3  Xrotation Yrotation Zrotation
					JOINT neck_1
					{
						OFFSET	0	71.8	-50.3
						CHANNELS 3  Xrotation Yrotation Zrotation
						JOINT neck_2
						{
							OFFSET	0	86.2	-25.8
							CHANNELS 3  Xrotation Yrotation Zrotation
							JOINT head_ee
							{
								OFFSET	0	179.8	-8.7
								CHANNELS 3  Xrotation Yrotation Zrotation
								End Site
								{
									OFFSET	1	0	0
								}
							}
						}
					}
					JOINT left_clavicle
					{
						OFFSET	-43.2	22.4	-70.8
						CHANNELS 3  Xrotation Yrotation Zrotation
						JOINT left_shoulder
						{
							OFFSET	-93.9	-5.79999	48.7
							CHANNELS 3  Xrotation Yrotation Zrotation
							JOINT left_elbow
							{
								OFFSET	-291.4	-30.8	15.2
								CHANNELS 3  Xrotation Yrotation Zrotation
								JOINT left_lowarm_twist
								{
									OFFSET	-110.7	-3.89999	13.6
									CHANNELS 3  Xrotation Yrotation Zrotation
									JOINT left_hand
									{
										OFFSET	-110.7	-3.89999	13.6
										CHANNELS 3  Xrotation Yrotation Zrotation
										JOINT left_ee
										{
											OFFSET	-80.8	-5.10001	12.1
											CHANNELS 3  Xrotation Yrotation Zrotation
											End Site
											{
												OFFSET	1	0	0
											}
										}
									}
								}
							}
						}
					}
					JOINT right_clavicle
					{
						OFFSET	43.2	22.4	-70.8
						CHANNELS 3  Xrotation Yrotation Zrotation
						JOINT right_shoulder
						{
							OFFSET	93.9	-5.79999	48.7
							CHANNELS 3  Xrotation Yrotation Zrotation
							JOINT right_elbow
							{
								OFFSET	291.4	-30.8	15.2
								CHANNELS 3  Xrotation Yrotation Zrotation
								JOINT right_lowarm_twist
								{
									OFFSET	110.7	-3.89999	13.6
									CHANNELS 3  Xrotation Yrotation Zrotation
									JOINT right_hand
									{
										OFFSET	110.7	-3.89999	13.6
										CHANNELS 3  Xrotation Yrotation Zrotation
										JOINT right_ee
										{
											OFFSET	80.8	-5.10001	12.1
											CHANNELS 3  Xrotation Yrotation Zrotation
											End Site
											{
												OFFSET	1	0	0
											}
										}
									}
								}
							}
						}
					}
				}
			}
		}
	}
	JOINT left_hip
	{
		OFFSET	-82.8	-127.5	0.300001
		CHANNELS 3  Xrotation Yrotation Zrotation
		JOINT left_knee
		{
			OFFSET	-28.2	-396.7	2.2
			CHANNELS 3  Xrotation Yrotation Zrotation
			JOINT left_ankle
			{
				OFFSET	-11.7	-411.3	35.4
				CHANNELS 3  Xrotation Yrotation Zrotation
				JOINT left_toes
				{
					OFFSET	0	-60	-88.6
					CHANNELS 3  Xrotation Yrotation Zrotation
					JOINT left_foot_ee
					{
						OFFSET	-22.5	-16.5	-42.2
						CHANNELS 3  Xrotation Yrotation Zrotation
						End Site
						{
							OFFSET	1	0	0
						}
					}
				}
			}
		}
	}
	JOINT right_hip
	{
		OFFSET	82.8	-127.5	0.300001
		CHANNELS 3  Xrotation Yrotation Zrotation
		JOINT right_knee
		{
			OFFSET	28.2	-396.7	2.2
			CHANNELS 3  Xrotation Yrotation Zrotation
			JOINT right_ankle
			{
				OFFSET	11.7	-411.3	35.4
				CHANNELS 3  Xrotation Yrotation Zrotation
				JOINT right_toes
				{
					OFFSET	0	-60	-88.6
					CHANNELS 3  Xrotation Yrotation Zrotation
					JOINT right_foot_ee
					{
						OFFSET	22.5	-16.5	-42.2
						CHANNELS 3  Xrotation Yrotation Zrotation
						End Site
						{
							OFFSET	1	0	0
						}
					}
				}
			}
		}
	}
}
MOTION
Frames: 6
Frame Time: 0.02
2089.0 721.002 -778.875 -179.492 -80.8287 178.813 -1.61593 -0.263051 -2.06604 -1.61357 -0.131079 -2.07859 -1.6066 0.366473 -2.05023 -1.61247 0.0381505 -2.08237 6.44327 -0.268253 3.24809 6.49929 -3.33933 3.77305 -0.0 0.0 -0.0 7.48837 -15.015 14.187 6.54686 -23.008 62.2839 3.38 -59.1385 1.91808 -41.1584 -3.07519 4.14261 -1.82573 3.12973 -10.8276 -0.0 0.0 -0.0 5.90865 -20.4909 -11.0671 -27.6254 12.2424 -53.6527 0.988616 26.0919 -0.229081 28.6297 -0.106671 3.61785 -1.22881 -18.2271 0.0371728 0.0 0.0 0.0 -5.32944 -22.7456 7.90672 -25.7494 0.183267 3.9141 11.4173 17.3279 -1.63733 36.7949 -0.0 -0.0 -0.0 0.0 -0.0 30.7428 -5.43359 7.64057 -11.6753 -0.301948 -1.76323 16.1821 23.0238 2.60533 21.0033 -0.0 -0.0 0.0 0.0 0.0 
2112.74 719.505 -764.25 176.777 -81.5035 175.412 -1.58811 -0.335346 -2.01484 -1.58588 -0.206484 -2.03209 -1.57636 0.281059 -2.02313 -1.58207 -0.0419143 -2.04212 6.94183 -0.123724 3.52894 7.00526 -3.35934 4.13256 -0.0 0.0 -0.0 7.71183 -15.0728 14.6682 5.91439 -22.9849 62.6708 2.99479 -56.006 1.59282 -41.1499 -3.07428 4.14202 -2.01307 3.68544 -11.8283 -0.0 0.0 -0.0 6.20614 -19.8738 -11.5518 -26.5167 12.8545 -53.9303 0.91973 24.494 -0.199647 28.2165 -0.118025 3.5663 -1.41483 -18.2815 1.13391 0.0 0.0 0.0 -5.82382 -22.8765 6.9983 -27.4003 0.134829 4.16282 10.7961 17.0244 -1.55015 36.7776 -0.0 -0.0 -0.0 0.0 -0.0 30.6616 -5.71798 7.15042 -13.1522 -0.314363 -1.98948 16.7307 22.8441 2.6813 20.871 -0.0 -0.0 0.0 0.0 0.0 
2142.96 718.73 -746.87 179.245 -81.9612 177.651 -1.60473 -0.444995 -1.9597 -1.60265 -0.319418 -1.98403 -1.58935 0.160334 -2.00317 -1.59492 -0.157976 -2.00335 7.37399 0.116359 3.9251 7.44725 -3.32449 4.63014 -0.0 0.0 -0.0 7.74054 -15.0892 14.7296 5.55801 -23.0329 62.8866 2.54196 -51.5368 1.22726 -41.1375 -3.07294 4.14115 -2.2763 4.41643 -13.2553 -0.0 0.0 -0.0 6.60175 -19.0033 -12.2159 -25.845 13.1983 -53.9866 0.800407 21.6281 -0.152892 27.6616 -0.132687 3.49694 -1.6619 -18.2376 2.64421 0.0 0.0 0.0 -6.52754 -23.0442 5.62559 -28.9018 0.0845591 4.38778 9.89367 16.8284 -1.42406 36.7658 -0.0 -0.0 -0.0 0.0 -0.0 30.6958 -5.73068 7.15674 -15.1034 -0.321816 -2.28875 17.5248 22.5438 2.78873 20.7412 -0.0 -0.0 0.0 0.0 0.0 
2166.06 709.634 -727.351 178.157 -81.3373 177.421 -1.9656 -0.308555 -2.10917 -1.96314 -0.173749 -2.12452 -1.95411 0.348682 -2.10291 -1.96028 0.0122693 -2.13157 7.55257 -0.0849404 4.30539 7.6473 -4.00978 5.08613 -0.0 0.0 -0.0 8.44416 -14.4636 16.2936 4.03214 -18.8518 61.5455 2.22013 -47.7145 0.981944 -41.8139 -3.14611 4.18787 -2.27477 4.94801 -12.985 -0.0 0.0 -0.0 6.88444 -18.2308 -12.713 -25.0098 12.8381 -54.6943 0.847954 22.7847 -0.170863 27.8654 -0.127382 3.52242 -1.79551 -18.8888 3.14044 0.0 0.0 0.0 -7.33263 -24.0742 2.99418 -31.6428 -0.0223542 4.79479 9.41565 18.0076 -1.36204 36.1351 -0.0 -0.0 -0.0 0.0 -0.0 31.6875 -6.41077 7.75501 -18.9545 -0.306614 -2.87932 18.9659 25.6505 3.09522 22.2673 -0.0 -0.0 0.0 0.0 0.0 
2200.44 715.283 -716.035 176.934 -81.2092 176.836 -2.07119 -0.212162 -2.25918 -2.06835 -0.0680127 -2.2681 -2.06282 0.490499 -2.21549 -2.06964 0.134542 -2.26513 8.09293 -0.927216 2.37441 8.13993 -3.68999 2.80426 -0.0 0.0 -0.0 9.08433 -14.155 17.7081 2.85602 -17.7157 62.5339 1.78782 -41.5253 0.67784 -40.351 -2.98857 4.08575 -2.18593 5.70537 -12.0176 -0.0 0.0 -0.0 6.83785 -18.4381 -12.6246 -24.1542 13.1674 -54.0651 0.84887 22.8068 -0.171218 27.9699 -0.124624 3.53549 -1.81865 -19.0115 3.22072 0.0 0.0 0.0 -7.58053 -23.8176 2.61601 -31.876 -0.0323504 4.82918 4.81725 20.3636 -0.712079 35.8052 -0.0 -0.0 -0.0 0.0 -0.0 30.8056 -7.51308 7.00825 -23.1038 -0.245883 -3.51297 18.7151 24.1589 3.00909 23.1966 -0.0 -0.0 0.0 0.0 0.0 
2227.46 716.828 -701.632 169.667 -82.0116 170.192 -1.91916 -0.299885 -2.21402 -1.91644 -0.158429 -2.22861 -1.9075 0.387119 -2.20045 -1.91426 0.0348308 -2.23396 8.20547 -0.354598 1.92895 8.22959 -2.33408 2.28963 -0.0 0.0 -0.0 9.20763 -13.554 18.0035 1.15892 -17.2539 63.4595 1.51167 -36.8248 0.503256 -40.1371 -2.96576 4.07049 -1.86925 5.97117 -9.77738 -0.0 0.0 -0.0 6.87735 -16.6541 -12.811 -24.1231 12.9519 -53.9978 0.902409 24.0856 -0.192522 29.0779 -0.0939318 3.6737 -2.05109 -22.0392 3.12859 0.0 0.0 0.0 -3.20646 -22.128 0.121424 -41.0597 -0.535557 6.14598 7.96691 19.1473 -1.16199 36.6073 -0.0 -0.0 -0.0 0.0 -0.0 27.0979 -8.19398 5.96067 -22.0667 -0.265363 -3.35502 18.7446 24.0234 3.00903 24.7209 -0.0 -0.0 0.0 0.0 0.0 
